<?xml version="1.0" encoding="utf-8"?>
<!-- Generator: Adobe Illustrator 18.1.1, SVG Export Plug-In . SVG Version: 6.00 Build 0)  -->
<svg version="1.1" id="レイヤー_1" xmlns="http://www.w3.org/2000/svg" xmlns:xlink="http://www.w3.org/1999/xlink" x="0px"
	 y="0px" width="21px" height="14px" viewBox="0 0 21 14" enable-background="new 0 0 21 14" xml:space="preserve">
<g>
	<rect y="0" fill="#FFFFFF" width="21" height="14"/>
	<g>
		<rect y="0" fill="#D90026" width="21" height="1.0994"/>
		<rect y="2.1505" fill="#D90026" width="21" height="1.0998"/>
		<rect y="4.2996" fill="#D90026" width="21" height="1.1004"/>
		<rect y="6.4511" fill="#D90026" width="21" height="1.0984"/>
		<rect y="8.6006" fill="#D90026" width="21" height="1.0991"/>
		<rect y="10.7511" fill="#D90026" width="21" height="1.0991"/>
		<rect y="12.9012" fill="#D90026" width="21" height="1.0988"/>
	</g>
	<rect y="0" fill="#0035AD" width="9.4495" height="7.5495"/>
	<g>
		<polygon fill="#FFFFFF" points="0.7761,0.9175 1.016,1.0904 0.9249,0.8103 1.1647,0.6361 0.8686,0.6361 0.7761,0.3561 
			0.6851,0.6361 0.3902,0.6361 0.6301,0.8103 0.539,1.0904 		"/>
		<polygon fill="#FFFFFF" points="2.3563,0.9175 2.5948,1.0904 2.5036,0.8103 2.7422,0.6361 2.4474,0.6361 2.3563,0.3561 
			2.2638,0.6361 1.97,0.6361 2.2075,0.8103 2.1174,1.0904 		"/>
		<polygon fill="#FFFFFF" points="3.9347,0.9175 4.1745,1.0904 4.0834,0.8103 4.3206,0.6361 4.0272,0.6361 3.9347,0.3561 
			3.8436,0.6361 3.5488,0.6361 3.7886,0.8103 3.6975,1.0904 		"/>
		<polygon fill="#FFFFFF" points="5.5145,0.9175 5.7543,1.0904 5.6639,0.8103 5.9004,0.6361 5.6076,0.6361 5.5145,0.3561 
			5.4234,0.6361 5.1286,0.6361 5.3671,0.8103 5.2746,1.0904 		"/>
		<polygon fill="#FFFFFF" points="7.0939,0.9175 7.3337,1.0904 7.2413,0.8103 7.4798,0.6361 7.185,0.6361 7.0939,0.3561 
			7.0015,0.6361 6.708,0.6361 6.9478,0.8103 6.8554,1.0904 		"/>
		<polygon fill="#FFFFFF" points="8.6733,0.9175 8.9118,1.0904 8.8207,0.8103 9.0592,0.6361 8.7645,0.6361 8.6733,0.3561 
			8.5822,0.6361 8.2874,0.6361 8.5246,0.8103 8.4335,1.0904 		"/>
		<polygon fill="#FFFFFF" points="1.5667,1.6813 1.8065,1.8541 1.7154,1.5727 1.9526,1.3999 1.6578,1.3999 1.5667,1.1198 
			1.4756,1.3999 1.1795,1.3999 1.4193,1.5727 1.3295,1.8541 		"/>
		<polygon fill="#FFFFFF" points="3.1455,1.6813 3.384,1.8541 3.2942,1.5727 3.5327,1.3999 3.2379,1.3999 3.1455,1.1198 
			3.0544,1.3999 2.7596,1.3999 2.9981,1.5727 2.907,1.8541 		"/>
		<polygon fill="#FFFFFF" points="4.7252,1.6813 4.9637,1.8541 4.874,1.5727 5.1111,1.3999 4.8163,1.3999 4.7252,1.1198 
			4.6341,1.3999 4.338,1.3999 4.5765,1.5727 4.4868,1.8541 		"/>
		<polygon fill="#FFFFFF" points="6.305,1.6813 6.5435,1.8541 6.4524,1.5727 6.6906,1.3999 6.3961,1.3999 6.305,1.1198 
			6.2139,1.3999 5.9191,1.3999 6.1576,1.5727 6.0652,1.8541 		"/>
		<polygon fill="#FFFFFF" points="7.8845,1.6813 8.1226,1.8541 8.0316,1.5727 8.27,1.3999 7.9739,1.3999 7.8845,1.1198 
			7.7933,1.3999 7.4972,1.3999 7.7344,1.5727 7.646,1.8541 		"/>
		<polygon fill="#FFFFFF" points="0.7761,2.4437 1.016,2.6179 0.9249,2.3365 1.1647,2.1623 0.8686,2.1623 0.7761,1.8823 
			0.6851,2.1623 0.3902,2.1623 0.6301,2.3365 0.539,2.6179 		"/>
		<polygon fill="#FFFFFF" points="2.3563,2.4437 2.5948,2.6179 2.5036,2.3365 2.7422,2.1623 2.4474,2.1623 2.3563,1.8823 
			2.2638,2.1623 1.97,2.1623 2.2075,2.3365 2.1174,2.6179 		"/>
		<polygon fill="#FFFFFF" points="3.9347,2.4437 4.1745,2.6179 4.0834,2.3365 4.3206,2.1623 4.0272,2.1623 3.9347,1.8823 
			3.8436,2.1623 3.5488,2.1623 3.7886,2.3365 3.6975,2.6179 		"/>
		<polygon fill="#FFFFFF" points="5.5145,2.4437 5.7543,2.6179 5.6639,2.3365 5.9004,2.1623 5.6076,2.1623 5.5145,1.8823 
			5.4234,2.1623 5.1286,2.1623 5.3671,2.3365 5.2746,2.6179 		"/>
		<polygon fill="#FFFFFF" points="7.0939,2.4437 7.3337,2.6179 7.2413,2.3365 7.4798,2.1623 7.185,2.1623 7.0939,1.8823 
			7.0015,2.1623 6.708,2.1623 6.9478,2.3365 6.8554,2.6179 		"/>
		<polygon fill="#FFFFFF" points="8.6733,2.4437 8.9118,2.6179 8.8207,2.3365 9.0592,2.1623 8.7645,2.1623 8.6733,1.8823 
			8.5822,2.1623 8.2874,2.1623 8.5246,2.3365 8.4335,2.6179 		"/>
		<polygon fill="#FFFFFF" points="1.5667,3.2068 1.8065,3.3796 1.7154,3.0983 1.9526,2.9261 1.6578,2.9261 1.5667,2.6447 
			1.4756,2.9261 1.1795,2.9261 1.4193,3.0983 1.3295,3.3796 		"/>
		<polygon fill="#FFFFFF" points="3.1455,3.2068 3.384,3.3796 3.2942,3.0983 3.5327,2.9261 3.2379,2.9261 3.1455,2.6447 
			3.0544,2.9261 2.7596,2.9261 2.9981,3.0983 2.907,3.3796 		"/>
		<polygon fill="#FFFFFF" points="4.7252,3.2068 4.9637,3.3796 4.874,3.0983 5.1111,2.9261 4.8163,2.9261 4.7252,2.6447 
			4.6341,2.9261 4.338,2.9261 4.5765,3.0983 4.4868,3.3796 		"/>
		<polygon fill="#FFFFFF" points="6.305,3.2068 6.5435,3.3796 6.4524,3.0983 6.6906,2.9261 6.3961,2.9261 6.305,2.6447 
			6.2139,2.9261 5.9191,2.9261 6.1576,3.0983 6.0652,3.3796 		"/>
		<polygon fill="#FFFFFF" points="7.8845,3.2068 8.1226,3.3796 8.0316,3.0983 8.27,2.9261 7.9739,2.9261 7.8845,2.6447 
			7.7933,2.9261 7.4972,2.9261 7.7344,3.0983 7.646,3.3796 		"/>
		<polygon fill="#FFFFFF" points="0.7761,3.9689 1.016,4.1417 0.9249,3.8617 1.1647,3.6875 0.8686,3.6875 0.7761,3.4078 
			0.6851,3.6875 0.3902,3.6875 0.6301,3.8617 0.539,4.1417 		"/>
		<polygon fill="#FFFFFF" points="2.3563,3.9689 2.5948,4.1417 2.5036,3.8617 2.7422,3.6875 2.4474,3.6875 2.3563,3.4078 
			2.2638,3.6875 1.97,3.6875 2.2075,3.8617 2.1174,4.1417 		"/>
		<polygon fill="#FFFFFF" points="3.9347,3.9689 4.1745,4.1417 4.0834,3.8617 4.3206,3.6875 4.0272,3.6875 3.9347,3.4078 
			3.8436,3.6875 3.5488,3.6875 3.7886,3.8617 3.6975,4.1417 		"/>
		<polygon fill="#FFFFFF" points="5.5145,3.9689 5.7543,4.1417 5.6639,3.8617 5.9004,3.6875 5.6076,3.6875 5.5145,3.4078 
			5.4234,3.6875 5.1286,3.6875 5.3671,3.8617 5.2746,4.1417 		"/>
		<polygon fill="#FFFFFF" points="7.0939,3.9689 7.3337,4.1417 7.2413,3.8617 7.4798,3.6875 7.185,3.6875 7.0939,3.4078 
			7.0015,3.6875 6.708,3.6875 6.9478,3.8617 6.8554,4.1417 		"/>
		<polygon fill="#FFFFFF" points="8.6733,3.9689 8.9118,4.1417 8.8207,3.8617 9.0592,3.6875 8.7645,3.6875 8.6733,3.4078 
			8.5822,3.6875 8.2874,3.6875 8.5246,3.8617 8.4335,4.1417 		"/>
		<polygon fill="#FFFFFF" points="1.5667,4.7326 1.8065,4.9055 1.7154,4.6241 1.9526,4.4513 1.6578,4.4513 1.5667,4.1699 
			1.4756,4.4513 1.1795,4.4513 1.4193,4.6241 1.3295,4.9055 		"/>
		<polygon fill="#FFFFFF" points="3.1455,4.7326 3.384,4.9055 3.2942,4.6241 3.5327,4.4513 3.2379,4.4513 3.1455,4.1699 
			3.0544,4.4513 2.7596,4.4513 2.9981,4.6241 2.907,4.9055 		"/>
		<polygon fill="#FFFFFF" points="4.7252,4.7326 4.9637,4.9055 4.874,4.6241 5.1111,4.4513 4.8163,4.4513 4.7252,4.1699 
			4.6341,4.4513 4.338,4.4513 4.5765,4.6241 4.4868,4.9055 		"/>
		<polygon fill="#FFFFFF" points="6.305,4.7326 6.5435,4.9055 6.4524,4.6241 6.6906,4.4513 6.3961,4.4513 6.305,4.1699 
			6.2139,4.4513 5.9191,4.4513 6.1576,4.6241 6.0652,4.9055 		"/>
		<polygon fill="#FFFFFF" points="7.8845,4.7326 8.1226,4.9055 8.0316,4.6241 8.27,4.4513 7.9739,4.4513 7.8845,4.1699 
			7.7933,4.4513 7.4972,4.4513 7.7344,4.6241 7.646,4.9055 		"/>
		<polygon fill="#FFFFFF" points="0.7761,5.495 1.016,5.6679 0.9249,5.3879 1.1647,5.2137 0.8686,5.2137 0.7761,4.9336 
			0.6851,5.2137 0.3902,5.2137 0.6301,5.3879 0.539,5.6679 		"/>
		<polygon fill="#FFFFFF" points="2.3563,5.495 2.5948,5.6679 2.5036,5.3879 2.7422,5.2137 2.4474,5.2137 2.3563,4.9336 
			2.2638,5.2137 1.97,5.2137 2.2075,5.3879 2.1174,5.6679 		"/>
		<polygon fill="#FFFFFF" points="3.9347,5.495 4.1745,5.6679 4.0834,5.3879 4.3206,5.2137 4.0272,5.2137 3.9347,4.9336 
			3.8436,5.2137 3.5488,5.2137 3.7886,5.3879 3.6975,5.6679 		"/>
		<polygon fill="#FFFFFF" points="5.5145,5.495 5.7543,5.6679 5.6639,5.3879 5.9004,5.2137 5.6076,5.2137 5.5145,4.9336 
			5.4234,5.2137 5.1286,5.2137 5.3671,5.3879 5.2746,5.6679 		"/>
		<polygon fill="#FFFFFF" points="7.0939,5.495 7.3337,5.6679 7.2413,5.3879 7.4798,5.2137 7.185,5.2137 7.0939,4.9336 
			7.0015,5.2137 6.708,5.2137 6.9478,5.3879 6.8554,5.6679 		"/>
		<polygon fill="#FFFFFF" points="8.6733,5.495 8.9118,5.6679 8.8207,5.3879 9.0592,5.2137 8.7645,5.2137 8.6733,4.9336 
			8.5822,5.2137 8.2874,5.2137 8.5246,5.3879 8.4335,5.6679 		"/>
		<polygon fill="#FFFFFF" points="1.5667,6.2588 1.8065,6.4317 1.7154,6.1516 1.9526,5.9774 1.6578,5.9774 1.5667,5.6961 
			1.4756,5.9774 1.1795,5.9774 1.4193,6.1516 1.3295,6.4317 		"/>
		<polygon fill="#FFFFFF" points="3.1455,6.2588 3.384,6.4317 3.2942,6.1516 3.5327,5.9774 3.2379,5.9774 3.1455,5.6961 
			3.0544,5.9774 2.7596,5.9774 2.9981,6.1516 2.907,6.4317 		"/>
		<polygon fill="#FFFFFF" points="4.7252,6.2588 4.9637,6.4317 4.874,6.1516 5.1111,5.9774 4.8163,5.9774 4.7252,5.6961 
			4.6341,5.9774 4.338,5.9774 4.5765,6.1516 4.4868,6.4317 		"/>
		<polygon fill="#FFFFFF" points="6.305,6.2588 6.5435,6.4317 6.4524,6.1516 6.6906,5.9774 6.3961,5.9774 6.305,5.6961 
			6.2139,5.9774 5.9191,5.9774 6.1576,6.1516 6.0652,6.4317 		"/>
		<polygon fill="#FFFFFF" points="7.8845,6.2588 8.1226,6.4317 8.0316,6.1516 8.27,5.9774 7.9739,5.9774 7.8845,5.6961 
			7.7933,5.9774 7.4972,5.9774 7.7344,6.1516 7.646,6.4317 		"/>
		<polygon fill="#FFFFFF" points="0.7761,7.0206 1.016,7.1934 0.9249,6.912 1.1647,6.7392 0.8686,6.7392 0.7761,6.4598 
			0.6851,6.7392 0.3902,6.7392 0.6301,6.912 0.539,7.1934 		"/>
		<polygon fill="#FFFFFF" points="2.3563,7.0206 2.5948,7.1934 2.5036,6.912 2.7422,6.7392 2.4474,6.7392 2.3563,6.4598 
			2.2638,6.7392 1.97,6.7392 2.2075,6.912 2.1174,7.1934 		"/>
		<polygon fill="#FFFFFF" points="3.9347,7.0206 4.1745,7.1934 4.0834,6.912 4.3206,6.7392 4.0272,6.7392 3.9347,6.4598 
			3.8436,6.7392 3.5488,6.7392 3.7886,6.912 3.6975,7.1934 		"/>
		<polygon fill="#FFFFFF" points="5.5145,7.0206 5.7543,7.1934 5.6639,6.912 5.9004,6.7392 5.6076,6.7392 5.5145,6.4598 
			5.4234,6.7392 5.1286,6.7392 5.3671,6.912 5.2746,7.1934 		"/>
		<polygon fill="#FFFFFF" points="7.0939,7.0206 7.3337,7.1934 7.2413,6.912 7.4798,6.7392 7.185,6.7392 7.0939,6.4598 
			7.0015,6.7392 6.708,6.7392 6.9478,6.912 6.8554,7.1934 		"/>
		<polygon fill="#FFFFFF" points="8.6733,7.0206 8.9118,7.1934 8.8207,6.912 9.0592,6.7392 8.7645,6.7392 8.6733,6.4598 
			8.5822,6.7392 8.2874,6.7392 8.5246,6.912 8.4335,7.1934 		"/>
	</g>
</g>
</svg>
