<?xml version="1.0" encoding="UTF-8"?>
<svg width="164px" height="20px" viewBox="0 0 164 20" version="1.1" xmlns="http://www.w3.org/2000/svg" xmlns:xlink="http://www.w3.org/1999/xlink">
    <!-- Generator: Sketch 44.1 (41455) - http://www.bohemiancoding.com/sketch -->
    <title>logo-psn</title>
    <desc>Created with Sketch.</desc>
    <defs>
        <polygon id="path-1" points="0.383416704 16.1071429 10.190992 16.1071429 10.190992 0.629716071 0.383416704 0.629716071 0.383416704 16.1071429"></polygon>
    </defs>
    <g id="Symbols" stroke="none" stroke-width="1" fill="none" fill-rule="evenodd">
        <g id="contents/footer2-dark" transform="translate(-113.000000, -370.000000)">
            <g id="Group-8" transform="translate(113.000000, 371.000000)">
                <g id="Group-6">
                    <g id="Page-1">
                        <path d="M5.85794821,1.14507143 L0.0432696429,1.14141071 C0.0198410714,1.14141071 7.32142859e-05,1.15971429 7.32142859e-05,1.18314286 L7.32142859e-05,14.7834286 C7.32142859e-05,14.8053929 0.0198410714,14.8258929 0.0432696429,14.8258929 L2.40076964,14.8258929 C2.42200179,14.8258929 2.4410375,14.8053929 2.4410375,14.7834286 L2.44396607,2.66133929 C2.44396607,2.65035714 2.44982321,2.64010714 2.45714464,2.64010714 C2.45714464,2.639375 5.15069821,2.63498214 5.15069821,2.63498214 C6.13176964,2.63498214 6.67501964,3.62410714 6.67501964,5.42151786 C6.67501964,7.22039286 6.13176964,8.20878571 5.15069821,8.20878571 L3.53193036,8.20878571 C3.50776964,8.20878571 3.48873393,8.22708929 3.48873393,8.24978571 L3.48873393,9.660625 C3.48873393,9.68405357 3.50776964,9.70308929 3.53193036,9.70308929 L5.85794821,9.70308929 C6.6742875,9.70308929 7.47451964,9.32530357 8.0580375,8.66857143 C8.74771607,7.89542857 9.11305536,6.77451786 9.11305536,5.4325 C9.11305536,2.82753571 7.83546607,1.14507143 5.85794821,1.14507143" id="Fill-1" fill="#FFFFFF"></path>
                        <path d="M12.9609786,1.14148393 L10.6049429,1.14148393 C10.5822464,1.14148393 10.5624786,1.15905536 10.5624786,1.18321607 L10.5624786,14.7835018 C10.5624786,14.8054661 10.5822464,14.8259661 10.6049429,14.8259661 L12.9609786,14.8259661 C12.983675,14.8259661 13.004175,14.8054661 13.004175,14.7835018 L13.004175,1.18321607 C13.004175,1.15905536 12.983675,1.14148393 12.9609786,1.14148393" id="Fill-3" fill="#FFFFFF"></path>
                        <path d="M23.2488304,4.45120893 C23.2488304,4.42704821 23.2305268,4.4080125 23.2063661,4.4080125 L18.9994732,4.4080125 C15.2391875,4.4080125 14.7559732,7.18136964 14.7559732,9.60695893 L14.7589018,11.7074768 C14.7589018,13.5151375 15.8820089,14.8256732 17.4304911,14.8256732 L19.7191696,14.8256732 C19.7418661,14.8256732 19.7616339,14.8059054 19.7616339,14.7839411 L19.7616339,13.3738339 C19.7616339,13.3496732 19.7418661,13.3299054 19.7191696,13.3299054 L18.0820982,13.3328339 C17.7050446,13.3247804 17.1991339,13.1644411 17.1991339,11.8722089 L17.1991339,9.60549464 C17.1984018,8.09508393 17.3404375,7.13744107 17.6486696,6.58686964 C17.9869196,5.98211964 18.5221161,5.90158393 18.9994732,5.90158393 L20.7961518,5.90158393 C20.8056696,5.90158393 20.8137232,5.91183393 20.8137232,5.92135179 L20.8100625,14.7839411 C20.8100625,14.8059054 20.8276339,14.8256732 20.8525268,14.8256732 L23.2092946,14.8256732 C23.2312589,14.8256732 23.2495625,14.8059054 23.2495625,14.7839411 L23.2488304,4.51417321 L23.2488304,4.45120893 Z" id="Fill-5" fill="#FFFFFF"></path>
                        <path d="M40.2072357,6.83740893 L39.0482536,6.74881964 C38.1777357,6.67267679 37.5297893,6.19019464 37.5297893,4.7595875 C37.5297893,3.09103393 38.2817,2.64003393 39.2766821,2.64003393 L42.4856643,2.64003393 C42.5090929,2.64003393 42.5281286,2.62173036 42.5281286,2.5968375 L42.5281286,1.18306964 C42.5281286,1.15964107 42.5090929,1.1413375 42.4856643,1.1413375 L42.4234321,1.1413375 L42.4190393,1.1413375 L38.9406286,1.14280179 C36.749325,1.14280179 35.1876643,2.43064107 35.1876643,4.99899821 L35.1876643,5.10662321 C35.1876643,7.14124821 36.4337714,8.60114107 38.2912179,8.7417125 L39.4509321,8.82810536 C40.3280393,8.8954625 40.8720214,9.68031964 40.8720214,10.8795696 L40.8720214,11.2163554 C40.8720214,11.9675339 40.6889857,13.3300518 39.0848607,13.3300518 L35.8129143,13.3300518 L35.7492179,13.3300518 C35.7265214,13.3300518 35.7074857,13.3498196 35.7074857,13.3732482 L35.7074857,14.7840875 C35.7074857,14.8053196 35.7265214,14.8258196 35.7492179,14.8258196 L39.89095,14.8258196 C41.1685393,14.8258196 43.3122536,14.3074625 43.3122536,10.8283196 C43.3122536,9.57489107 43.0201286,8.5777125 42.4424679,7.86314107 C41.9446107,7.24887321 41.2139321,6.91355179 40.2072357,6.83740893" id="Fill-7" fill="#FFFFFF"></path>
                        <path d="M59.5228482,4.45120893 C59.5228482,4.42704821 59.5045446,4.4080125 59.4803839,4.4080125 L55.2764196,4.4080125 C51.5124732,4.4080125 51.0314554,7.18136964 51.0314554,9.60695893 L51.0321875,11.7074768 C51.0321875,13.5151375 52.1552946,14.8256732 53.7052411,14.8256732 L55.9939196,14.8256732 C56.0158839,14.8256732 56.0356518,14.8059054 56.0356518,14.7839411 L56.0356518,13.3738339 C56.0356518,13.3496732 56.0158839,13.3299054 55.9939196,13.3299054 L54.3546518,13.3328339 C53.9768661,13.3247804 53.4724196,13.1644411 53.4694911,11.8722089 L53.4694911,9.60549464 C53.4694911,8.09508393 53.6122589,7.13744107 53.9226875,6.58686964 C54.2609375,5.98211964 54.7954018,5.90158393 55.2742232,5.90158393 L57.0701696,5.90158393 C57.0782232,5.90158393 57.0855446,5.91183393 57.0855446,5.92135179 L57.0840804,14.7839411 C57.0840804,14.8059054 57.1031161,14.8256732 57.1272768,14.8256732 L59.4811161,14.8256732 C59.5045446,14.8256732 59.5228482,14.8059054 59.5228482,14.7839411 L59.5228482,4.45120893 Z" id="Fill-9" fill="#FFFFFF"></path>
                        <path d="M50.0456982,4.40830536 L47.4963768,4.40830536 C47.4883232,4.40830536 47.4810018,4.40098393 47.4810018,4.39219821 L47.4795375,4.38268036 L47.4810018,2.68264464 C47.4810018,2.65921607 47.4612339,2.63944821 47.4392696,2.63944821 L45.0832339,2.63944821 C45.0590732,2.63944821 45.0407696,2.65921607 45.0407696,2.68264464 L45.0407696,11.7092339 C45.0407696,13.5146982 46.1653411,14.8259661 47.7130911,14.8259661 L49.4021446,14.8259661 C49.4263054,14.8259661 49.4431446,14.8054661 49.4431446,14.7835018 L49.4431446,13.3733946 C49.4431446,13.3492339 49.4263054,13.3301982 49.4021446,13.3301982 L48.3632339,13.3301982 C48.1011268,13.3250732 47.4795375,13.3126268 47.4795375,11.9823232 L47.4795375,5.91139464 C47.4795375,5.90480536 47.4868589,5.89748393 47.4949125,5.89748393 C48.2761089,5.90187679 50.0456982,5.89748393 50.0456982,5.89748393 C50.0691268,5.89748393 50.0881625,5.87844821 50.0881625,5.85501964 L50.0881625,4.45150179 C50.0881625,4.42734107 50.0691268,4.40830536 50.0456982,4.40830536" id="Fill-11" fill="#FFFFFF"></path>
                        <path d="M66.5042696,4.40830536 L63.9549482,4.40830536 C63.9454304,4.40830536 63.9381089,4.40098393 63.9381089,4.39219821 L63.9381089,4.38268036 L63.9381089,2.68264464 C63.9381089,2.65921607 63.9176089,2.63944821 63.8971089,2.63944821 L61.5418054,2.63944821 C61.5169125,2.63944821 61.4993411,2.65921607 61.4993411,2.68264464 L61.4993411,11.7092339 C61.4993411,13.5146982 62.6224482,14.8259661 64.1701982,14.8259661 L65.8614482,14.8259661 C65.8834125,14.8259661 65.9017161,14.8054661 65.9017161,14.7835018 L65.9017161,13.3733946 C65.9017161,13.3492339 65.8834125,13.3301982 65.8614482,13.3301982 L64.8225375,13.3301982 C64.5560375,13.3250732 63.9381089,13.3126268 63.9381089,11.9823232 L63.9381089,5.91139464 C63.9381089,5.90480536 63.9432339,5.89748393 63.9527518,5.89748393 C64.7310196,5.90187679 66.5042696,5.89748393 66.5042696,5.89748393 C66.5269661,5.89748393 66.5460018,5.87844821 66.5460018,5.85501964 L66.5460018,4.45150179 C66.5460018,4.42734107 66.5269661,4.40830536 66.5042696,4.40830536" id="Fill-13" fill="#FFFFFF"></path>
                        <path d="M70.4005875,4.40830536 L68.0445518,4.40830536 C68.0233196,4.40830536 68.0020875,4.42734107 68.0020875,4.45150179 L68.0020875,14.7835018 C68.0020875,14.8054661 68.0233196,14.8259661 68.0445518,14.8259661 L70.4005875,14.8259661 C70.4232839,14.8259661 70.4430518,14.8054661 70.4430518,14.7835018 L70.4430518,4.45150179 C70.4430518,4.42734107 70.4232839,4.40830536 70.4005875,4.40830536" id="Fill-15" fill="#FFFFFF"></path>
                        <path d="M70.4005875,1.14148393 L68.0445518,1.14148393 C68.0233196,1.14148393 68.0020875,1.15905536 68.0020875,1.18321607 L68.0020875,3.15707321 C68.0020875,3.17976964 68.0233196,3.19880536 68.0445518,3.19880536 L70.4005875,3.19880536 C70.4232839,3.19880536 70.4430518,3.17976964 70.4430518,3.15707321 L70.4430518,1.18321607 C70.4430518,1.15905536 70.4232839,1.14148393 70.4005875,1.14148393" id="Fill-17" fill="#FFFFFF"></path>
                        <path d="M86.6957446,4.40830536 L82.4895839,4.40830536 C82.4683518,4.40830536 82.4478518,4.42734107 82.4478518,4.45150179 L82.4478518,14.7835018 C82.4478518,14.8054661 82.4683518,14.8259661 82.4895839,14.8259661 L84.8456196,14.8259661 C84.8690482,14.8259661 84.8880839,14.8054661 84.8880839,14.7835018 L84.8836911,5.91798393 C84.8836911,5.90993036 84.8910125,5.90187679 84.9005304,5.90187679 L86.6957446,5.90187679 C87.1752982,5.90187679 87.7119589,5.97582321 88.0487446,6.5359125 C88.3584411,7.04548393 88.5012089,7.93284107 88.5012089,9.3341625 C88.5026732,9.3956625 88.4997446,14.7835018 88.4997446,14.7835018 C88.4997446,14.8054661 88.5187804,14.8259661 88.5422089,14.8259661 L90.8975125,14.8259661 C90.9216732,14.8259661 90.9407089,14.8054661 90.9407089,14.7835018 L90.9407089,9.60725179 C90.9407089,7.18093036 90.4552982,4.40830536 86.6957446,4.40830536" id="Fill-19" fill="#FFFFFF"></path>
                        <path d="M77.9458321,12.6491589 C77.5724393,13.2575696 76.9808679,13.3403018 76.4493321,13.3403018 C75.9199929,13.3403018 75.3291536,13.2575696 74.9550286,12.6491589 C74.6160464,12.0978554 74.4579036,11.1350875 74.4579036,9.61881964 L74.4579036,9.60856964 C74.4579036,7.81481964 74.6797429,6.79787321 75.1754036,6.30880179 C75.4667964,6.02326607 75.8504393,5.90173036 76.4493321,5.90173036 C77.0526179,5.90173036 77.4318679,6.02326607 77.7254571,6.30880179 C78.2225821,6.79787321 78.4429571,7.81848036 78.4414929,9.61881964 C78.4414929,11.1350875 78.2862786,12.0993196 77.9458321,12.6491589 M76.4493321,4.40815893 C72.5140643,4.40815893 72.0088857,7.1939625 72.0088857,9.61881964 C72.0088857,12.0473375 72.5140643,14.8331411 76.4493321,14.8331411 C80.3846,14.8331411 80.8897786,12.0473375 80.8897786,9.61881964 C80.8897786,7.1939625 80.3846,4.40815893 76.4493321,4.40815893" id="Fill-21" fill="#FFFFFF"></path>
                        <g id="Group-25" transform="translate(24.160714, 3.778589)">
                            <mask id="mask-2" fill="white">
                                <use xlink:href="#path-1"></use>
                            </mask>
                            <g id="Clip-24"></g>
                            <path d="M0.415857143,0.629716071 C0.391696429,0.629716071 0.378517857,0.6472875 0.385107143,0.669983929 L3.87889286,10.9104661 C3.88694643,10.9324304 3.88401786,10.9675732 3.87889286,10.9902696 L1.91235714,16.0662161 C1.90576786,16.0889125 1.91894643,16.1072161 1.94017857,16.1072161 L3.98944643,16.1072161 C4.01360714,16.1072161 4.0385,16.0889125 4.04582143,16.0662161 L10.1877679,0.669983929 C10.1972857,0.6472875 10.1848393,0.629716071 10.1621429,0.629716071 L7.92617857,0.629716071 C7.90275,0.629716071 7.87639286,0.6472875 7.866875,0.669983929 L5.26557143,7.39910893 C5.25751786,7.42034107 5.24360714,7.42034107 5.23555357,7.39910893 L2.94541071,0.669983929 C2.93882143,0.6472875 2.91246429,0.629716071 2.88830357,0.629716071 L0.415857143,0.629716071 Z" id="Fill-23" fill="#FFFFFF" mask="url(#mask-2)"></path>
                        </g>
                        <polygon id="Fill-26" fill="#FFFFFF" points="92.5657732 13.2029518 91.9624875 13.2029518 91.9624875 12.9950232 93.4026125 12.9950232 93.4026125 13.2029518 92.8044518 13.2029518 92.8044518 14.8268446 92.5657732 14.8268446"></polygon>
                        <polygon id="Fill-28" fill="#FFFFFF" points="94.3768018 14.8269911 93.8752839 13.3385446 93.8752839 14.8269911 93.6351411 14.8269911 93.6351411 12.9951696 93.9689982 12.9951696 94.4968732 14.5553661 95.0262125 12.9951696 95.3578732 12.9951696 95.3578732 14.8269911 95.1191946 14.8269911 95.1191946 13.3385446 94.6184089 14.8269911"></polygon>
                        <polygon id="Fill-30" fill="#FFFFFF" points="105.145891 13.0628196 105.184695 13.0628196 105.184695 1.13474821 106.758802 1.13474821 106.758802 14.8272839 104.30173 14.8272839 98.2930339 2.80330179 98.2542304 2.80330179 98.2542304 14.8272839 96.6801232 14.8272839 96.6801232 1.13474821 99.1957661 1.13474821"></polygon>
                        <path d="M112.658921,5.7564 C111.775957,5.7564 111.075296,6.04413214 110.557671,6.61959643 C110.039314,7.19506071 109.734743,7.96161429 109.645421,8.92072143 L115.365654,8.92072143 L115.365654,8.84384643 C115.353207,7.873025 115.102814,7.11818571 114.616671,6.58079286 C114.130529,6.04413214 113.478189,5.76957857 112.658921,5.7564 L112.658921,5.7564 Z M109.645421,10.2056321 C109.696671,11.2665071 110.035654,12.1260429 110.6631,12.7849714 C111.289814,13.4431679 112.160332,13.7719 113.273921,13.7719 C113.721261,13.7719 114.181779,13.7309 114.655475,13.6474357 C115.128439,13.5647036 115.564064,13.4402393 115.960886,13.2740429 L116.229582,14.52015 C115.807136,14.699525 115.329779,14.832775 114.798975,14.9228286 C114.268171,15.01215 113.734439,15.0568107 113.197046,15.0568107 C112.352154,15.0443643 111.620011,14.9133107 110.999154,14.6643821 C110.378296,14.4147214 109.843832,14.0471857 109.395761,13.5610429 C108.947689,13.0756321 108.615296,12.5096857 108.39785,11.8639357 C108.180404,11.2189179 108.071314,10.5248464 108.071314,9.78318571 C108.071314,9.01663214 108.176743,8.31011429 108.388332,7.66436429 C108.599921,7.01934643 108.903029,6.45632857 109.300582,5.976775 C109.696671,5.49722143 110.176225,5.12675714 110.739975,4.86465 C111.302261,4.60254286 111.935564,4.47148929 112.639886,4.47148929 C113.344207,4.47148929 113.961404,4.59009643 114.492207,4.82657857 C115.023011,5.06306071 115.462296,5.39545357 115.807136,5.82375714 C116.152707,6.25206071 116.411886,6.77261429 116.584671,7.38688214 C116.757457,7.99968571 116.84385,8.67765 116.84385,9.41931071 L116.84385,10.2056321 L109.645421,10.2056321 Z" id="Fill-32" fill="#FFFFFF"></path>
                        <path d="M117.476495,4.70174821 L119.280495,4.70174821 L119.280495,2.15169464 L120.912441,2.15169464 L120.912441,4.70174821 L123.254566,4.70174821 L123.254566,5.98665893 L120.912441,5.98665893 L120.912441,12.0466054 C120.912441,12.3914446 120.924887,12.6696589 120.950512,12.8805161 C120.976137,13.0913732 121.033977,13.2575696 121.122566,13.3791054 C121.213352,13.5006411 121.344405,13.5804446 121.517191,13.6185161 C121.689245,13.6565875 121.916209,13.6763554 122.198816,13.6763554 C122.41553,13.6763554 122.604423,13.6697661 122.764762,13.6565875 C122.923637,13.6441411 123.094227,13.6251054 123.27287,13.5994804 L123.27287,14.8272839 C123.094227,14.8521768 122.860673,14.8807304 122.572209,14.9129446 C122.284477,14.9451589 122.006262,14.9612661 121.737566,14.9612661 C121.213352,14.9612661 120.790173,14.9004982 120.470959,14.7789625 C120.15028,14.6574268 119.901352,14.4721946 119.721977,14.2225339 C119.542602,13.9736054 119.424727,13.6763554 119.36762,13.3307839 C119.30978,12.9859446 119.280495,12.5898554 119.280495,12.1417839 L119.280495,5.98665893 L117.476495,5.98665893 L117.476495,4.70174821 Z" id="Fill-34" fill="#FFFFFF"></path>
                        <polygon id="Fill-36" fill="#FFFFFF" points="134.548529 13.4270607 134.5866 13.4270607 136.794743 4.70211429 138.541636 4.70211429 135.585243 14.8269179 133.492779 14.8269179 131.343207 6.04413214 131.303671 6.04413214 129.096993 14.8269179 126.985493 14.8269179 124.067904 4.70211429 125.833832 4.70211429 128.041243 13.4270607 128.080046 13.4270607 130.210582 4.70211429 132.437029 4.70211429"></polygon>
                        <path d="M146.400091,9.74526071 C146.400091,9.15735 146.339323,8.62068929 146.217787,8.13454643 C146.09552,7.64840357 145.91102,7.22961786 145.660627,6.87818929 C145.410966,6.52676071 145.09102,6.25220714 144.70152,6.05379643 C144.310555,5.85611786 143.852966,5.75654643 143.328752,5.75654643 C142.803805,5.75654643 142.346216,5.85611786 141.955984,6.05379643 C141.565752,6.25220714 141.246537,6.52676071 140.996145,6.87818929 C140.747216,7.22961786 140.561252,7.64840357 140.439716,8.13454643 C140.317448,8.62068929 140.257412,9.15735 140.257412,9.74526071 C140.257412,10.3331714 140.321109,10.874225 140.449966,11.3654929 C140.576627,11.8574929 140.766252,12.2828679 141.015912,12.6408857 C141.265573,12.9989036 141.581859,13.2771179 141.966234,13.4747964 C142.349877,13.6732071 142.803805,13.7720464 143.328752,13.7720464 C143.852966,13.7720464 144.310555,13.6732071 144.70152,13.4747964 C145.09102,13.2771179 145.410966,12.9989036 145.660627,12.6408857 C145.91102,12.2828679 146.09552,11.8574929 146.217787,11.3654929 C146.339323,10.874225 146.400091,10.3331714 146.400091,9.74526071 M148.032037,9.74526071 C148.032037,10.5762429 147.922948,11.3171714 147.705502,11.9695107 C147.487323,12.62185 147.174698,13.1775464 146.76543,13.6380643 C146.354698,14.0985821 145.862698,14.4500107 145.286502,14.69235 C144.710305,14.9354214 144.058698,15.0569571 143.328752,15.0569571 C142.599537,15.0569571 141.947198,14.9354214 141.371002,14.69235 C140.794805,14.4500107 140.302073,14.0985821 139.892805,13.6380643 C139.483537,13.1775464 139.17018,12.62185 138.952734,11.9695107 C138.734555,11.3171714 138.625466,10.5762429 138.625466,9.74526071 C138.625466,8.92745714 138.738216,8.188725 138.96152,7.53052857 C139.185555,6.87233214 139.495984,6.31883214 139.892805,5.87149286 C140.288895,5.42415357 140.782359,5.07858214 141.371002,4.83624286 C141.959645,4.59317143 142.611984,4.47163571 143.328752,4.47163571 C144.058698,4.47163571 144.713966,4.59317143 145.296752,4.83624286 C145.878805,5.07858214 146.371537,5.42415357 146.774216,5.87149286 C147.177627,6.31883214 147.487323,6.87233214 147.705502,7.53052857 C147.922948,8.188725 148.032037,8.92745714 148.032037,9.74526071" id="Fill-38" fill="#FFFFFF"></path>
                        <path d="M154.142282,5.81394643 C153.912389,5.775875 153.630514,5.75610714 153.298121,5.75610714 C152.95255,5.75610714 152.635532,5.81101786 152.3478,5.919375 C152.060068,6.02846429 151.803818,6.20710714 151.579782,6.45603571 C151.355746,6.70569643 151.182961,7.02857143 151.061425,7.42466071 C150.939889,7.82148214 150.879121,8.31348214 150.879121,8.90139286 L150.879121,14.8273571 L149.247907,14.8273571 L149.247907,4.70182143 L150.822014,4.70182143 L150.822014,6.062875 L150.84105,6.062875 C151.084121,5.52621429 151.423836,5.12719643 151.857996,4.86508929 C152.293621,4.60298214 152.837604,4.47192857 153.489943,4.47192857 C153.579264,4.47192857 153.7008,4.47485714 153.855282,4.48144643 C154.0083,4.48730357 154.129836,4.49755357 154.219157,4.51 L154.142282,5.81394643 Z" id="Fill-40" fill="#FFFFFF"></path>
                        <g id="Group-44" transform="translate(155.214286, 0.117875)" fill="#FFFFFF">
                            <polygon id="Fill-42" points="7.87383036 4.58387321 3.43997321 9.10924821 8.06565179 14.7094089 5.9731875 14.7094089 1.69234821 9.39698036 1.65427679 9.39698036 1.65427679 14.7094089 0.0223303571 14.7094089 0.0223303571 0.614194643 1.65427679 0.614194643 1.65427679 8.95623036 1.69234821 8.95623036 5.80040179 4.58387321"></polygon>
                        </g>
                    </g>
                </g>
            </g>
        </g>
    </g>
</svg>