<?xml version="1.0" encoding="utf-8"?>
<!-- Generator: Adobe Illustrator 18.1.1, SVG Export Plug-In . SVG Version: 6.00 Build 0)  -->
<svg version="1.1" id="レイヤー_1" xmlns="http://www.w3.org/2000/svg" xmlns:xlink="http://www.w3.org/1999/xlink" x="0px"
	 y="0px" width="134px" height="25px" viewBox="-56.5 0 134 25" enable-background="new -56.5 0 134 25" xml:space="preserve">
<title>logo-ps</title>
<desc>Created with Sketch.</desc>
<g>
	<g>
		<path fill="#FFFFFF" d="M-45.325,0.3888v21.1865l4.7971,1.5196V5.3305c0-0.837,0.3733-1.393,0.972-1.2018
			c0.7827,0.217,0.9348,0.9881,0.9348,1.816v7.0949c2.9859,1.4453,5.337-0.0007,5.337-3.8142c0-3.8962-1.3785-5.6321-5.4339-7.028
			C-40.3179,1.6649-43.2822,0.7659-45.325,0.3888"/>
		<path fill="#FFFFFF" d="M-39.6153,19.9976l7.7045-2.7421c0.8716-0.3229,1.0049-0.7621,0.2993-0.9926
			c-0.7165-0.235-1.9952-0.1679-2.8761,0.1486l-5.1278,1.809v-2.8868l0.2936-0.0969c0,0,1.4844-0.5257,3.5723-0.7517
			c2.0834-0.2286,4.6389,0.0297,6.6474,0.7866c2.2623,0.7188,2.5161,1.7669,1.9432,2.4967
			c-0.5806,0.722-1.9884,1.2445-1.9884,1.2445l-10.468,3.7599V19.9976z"/>
		<path fill="#FFFFFF" d="M-54.1141,19.7056c-2.3194-0.6464-2.7062-2.0117-1.6484-2.8002c0.9762-0.7207,2.6388-1.2626,2.6388-1.2626
			l6.8721-2.4502v2.7886l-4.9411,1.7708c-0.8748,0.3132-1.0062,0.7537-0.3016,0.9842c0.7175,0.2396,1.991,0.175,2.8668-0.1479
			l2.376-0.8563v2.489c-0.1534,0.0258-0.3239,0.0517-0.4792,0.0782C-49.0994,20.6924-51.6229,20.531-54.1141,19.7056"/>
		<path fill="#FFFFFF" d="M-28.6853,23.0587c0.3,0,0.5784-0.1182,0.7908-0.3281c0.2099-0.2131,0.3281-0.4915,0.3281-0.7918
			c0-0.3029-0.1182-0.5864-0.3281-0.7956c-0.2124-0.2138-0.4908-0.3287-0.7908-0.3287c-0.6222,0-1.1259,0.5024-1.1259,1.1243
			c0,0.3003,0.1162,0.5787,0.3261,0.7918C-29.273,22.9405-28.9853,23.0587-28.6853,23.0587 M-29.622,21.9389
			c0-0.2558,0.0956-0.4902,0.2706-0.6639c0.1789-0.1776,0.4178-0.2732,0.6661-0.2732c0.2487,0,0.4815,0.0956,0.6565,0.2732
			c0.176,0.1737,0.2712,0.4081,0.2712,0.6639c0,0.5121-0.4166,0.928-0.9277,0.928c-0.2483,0-0.4873-0.0949-0.6661-0.2699
			C-29.5265,22.42-29.622,22.1882-29.622,21.9389"/>
		<path fill="#FFFFFF" d="M-28.1334,22.4562c-0.0175-0.0052-0.0297-0.0219-0.0394-0.051c-0.0045-0.0226-0.0078-0.0543-0.009-0.0949
			l-0.0058-0.1595c-0.0026-0.0736-0.0161-0.1311-0.0472-0.1653c-0.0155-0.0272-0.0426-0.0439-0.0691-0.0627
			c0.0342-0.031,0.0659-0.0633,0.0923-0.0981c0.031-0.0497,0.0485-0.1169,0.0485-0.1886c0-0.1466-0.0626-0.2506-0.185-0.308
			c-0.0617-0.0258-0.1418-0.0433-0.2367-0.0433h-0.5535h-0.0278v0.0323v1.1941v0.0252h0.0278h0.1634h0.0303V22.511v-0.4843h0.3384
			c0.0626,0,0.1052,0.0084,0.1362,0.0187c0.042,0.0265,0.0643,0.0671,0.0672,0.1363l0.0107,0.195
			c0.0036,0.0497,0.0068,0.0794,0.0094,0.102c0.0029,0.0174,0.0097,0.0323,0.0167,0.0433l0.0045,0.0142h0.0162h0.197h0.0303V22.511
			v-0.0258v-0.02L-28.1334,22.4562z M-28.3827,21.6502c0,0.0704-0.0168,0.1163-0.053,0.1395
			c-0.0413,0.0284-0.0956,0.0426-0.1644,0.0426h-0.3445V21.481h0.3649c0.0516,0,0.0897,0.0084,0.1208,0.0207
			C-28.4086,21.5262-28.3827,21.5759-28.3827,21.6502"/>
	</g>
	<g>
		<path fill="#FFFFFF" d="M-11.2755,5.9486l-5.7929-0.0026c-0.0239,0-0.0436,0.0187-0.0436,0.0407v13.5491
			c0,0.022,0.0197,0.042,0.0436,0.042h2.3475c0.021,0,0.0413-0.02,0.0413-0.042l0.0029-12.078c0-0.0123,0.0045-0.0206,0.0136-0.0206
			l2.6885-0.0045c0.9788,0,1.5164,0.9862,1.5164,2.7737c0,1.7883-0.5376,2.777-1.5164,2.777l-1.6181-0.0019
			c-0.0242,0-0.0404,0.0187-0.0404,0.042v1.4059c0,0.0271,0.0161,0.0439,0.0404,0.0439h2.3172c0.8173,0,1.6178-0.3791,2.1958-1.0301
			c0.6846-0.7724,1.0449-1.8877,1.0449-3.2245C-8.0348,7.6283-9.3003,5.9486-11.2755,5.9486"/>
		<path fill="#FFFFFF" d="M-4.1951,5.946h-2.3495c-0.0265,0-0.0459,0.0187-0.0459,0.0407v13.5491c0,0.022,0.0194,0.042,0.0459,0.042
			h2.3495c0.022,0,0.043-0.02,0.043-0.042V5.9867C-4.1522,5.9647-4.1731,5.946-4.1951,5.946"/>
		<path fill="#FFFFFF" d="M6.051,9.2441c0-0.0239-0.0213-0.042-0.0442-0.042H1.8229c-3.7512,0-4.2308,2.7537-4.2308,5.1736
			l0.0023,2.0931c0,1.8012,1.1201,3.1089,2.6604,3.1089h2.2826c0.0219,0,0.0413-0.02,0.0413-0.042v-1.404
			c0-0.0232-0.0194-0.0433-0.0413-0.0433l-1.6304,0.0026c-0.3758-0.0077-0.8812-0.1666-0.8812-1.4582v-2.2597
			c-0.002-1.5015,0.1379-2.4612,0.4495-3.0075c0.3377-0.6032,0.8693-0.6839,1.3475-0.6839h1.7834
			c0.0097,0,0.0139,0.0097,0.0152,0.0213c-0.0013,0-0.0026,8.8328-0.0026,8.8328c0,0.022,0.0184,0.042,0.0433,0.042h2.3453
			c0.0229,0,0.0436-0.02,0.0436-0.042V9.3087V9.2441z"/>
		<path fill="#FFFFFF" d="M22.9506,11.6162l-1.157-0.0885c-0.8673-0.0749-1.5128-0.5554-1.5128-1.9768
			c0-1.6598,0.7446-2.1137,1.7382-2.1137h3.2022c0.0197,0,0.0423-0.0187,0.0423-0.0414V5.9867c0-0.022-0.0226-0.0407-0.0423-0.0407
			H25.158h-0.0039l-3.469,0.0013c-2.1851,0-3.7392,1.2832-3.7392,3.8413v0.1111c0,2.0188,1.2419,3.4758,3.0928,3.6172l1.1515,0.0852
			c0.8783,0.0665,1.4253,0.8518,1.4253,2.044v0.3352c0,0.7453-0.1864,2.1086-1.7844,2.1086h-3.2646h-0.0626
			c-0.022,0-0.042,0.0193-0.042,0.0433v1.4027c0,0.022,0.02,0.042,0.042,0.042h4.1306c1.2726,0,3.4041-0.5153,3.4041-3.9795
			c0-1.2548-0.2851-2.2442-0.8628-2.9591C24.683,12.0256,23.9532,11.693,22.9506,11.6162"/>
		<path fill="#FFFFFF" d="M42.191,9.2441c0-0.0239-0.0197-0.042-0.042-0.042H37.956c-3.7434,0-4.2281,2.7537-4.2281,5.1736
			l0.0032,2.0931c0,1.8012,1.1188,3.1089,2.6672,3.1089h2.2762c0.022,0,0.0423-0.02,0.0423-0.042v-1.404
			c0-0.0232-0.0203-0.0433-0.0423-0.0433l-1.6316,0.0026c-0.3743-0.0077-0.8751-0.1666-0.8767-1.4582v-2.2597
			c0-1.5015,0.1411-2.4612,0.4456-3.0075c0.3381-0.6032,0.8732-0.6839,1.3436-0.6839h1.7912c0.0094,0,0.0155,0.0097,0.0174,0.0213
			l-0.0039,8.8328c0,0.022,0.019,0.042,0.0426,0.042h2.3482c0.0232,0,0.0401-0.02,0.0401-0.042V9.2441z"/>
		<path fill="#FFFFFF" d="M32.7524,9.2021h-2.5487c-0.0058,0-0.0133-0.0065-0.0133-0.0155V9.177V7.4792
			c0-0.0226-0.0175-0.042-0.041-0.042h-2.3469c-0.0239,0-0.0452,0.0193-0.0452,0.042v8.991c0,1.8005,1.1228,3.1076,2.6685,3.1076
			h1.681c0.0242,0,0.043-0.02,0.043-0.042v-1.4027c0-0.0226-0.0187-0.0446-0.043-0.0446h-1.032
			c-0.2645-0.0039-0.8844-0.0174-0.8867-1.3446v-6.0525c0-0.0065,0.0071-0.0136,0.0142-0.0136c0.7808,0.0039,2.55,0,2.55,0
			c0.0219,0,0.0413-0.0187,0.0413-0.0388V9.2441C32.7938,9.2202,32.7744,9.2021,32.7524,9.2021"/>
		<path fill="#FFFFFF" d="M49.1435,9.2021h-2.5342c-0.0097,0-0.0171-0.0065-0.0171-0.0155V9.177V7.4792
			c0-0.0226-0.0168-0.042-0.0387-0.042h-2.3521c-0.0229,0-0.0433,0.0193-0.0433,0.042v8.991c0,1.8005,1.1208,3.1076,2.6656,3.1076
			h1.6804c0.0248,0,0.0417-0.02,0.0417-0.042v-1.4027c0-0.0226-0.0168-0.0446-0.0417-0.0446h-1.0317
			c-0.2654-0.0039-0.8802-0.0174-0.8802-1.3446v-6.0525c0-0.0065,0.0074-0.0136,0.0142-0.0136c0.7744,0.0039,2.5371,0,2.5371,0
			c0.0206,0,0.0417-0.0187,0.0417-0.0388V9.2441C49.1851,9.2202,49.1641,9.2021,49.1435,9.2021"/>
		<path fill="#FFFFFF" d="M53.0245,9.2021h-2.3469c-0.0219,0-0.0426,0.0181-0.0426,0.042v10.2916c0,0.022,0.0207,0.042,0.0426,0.042
			h2.3469c0.0258,0,0.0433-0.02,0.0433-0.042V9.2441C53.0677,9.2202,53.0503,9.2021,53.0245,9.2021"/>
		<path fill="#FFFFFF" d="M53.0245,5.946h-2.3469c-0.0219,0-0.0426,0.0187-0.0426,0.0407v1.9678
			c0,0.0239,0.0207,0.0413,0.0426,0.0413h2.3469c0.0258,0,0.0433-0.0174,0.0433-0.0413V5.9867
			C53.0677,5.9647,53.0503,5.946,53.0245,5.946"/>
		<path fill="#FFFFFF" d="M69.2628,9.2021H65.074c-0.022,0-0.0414,0.0181-0.0414,0.042l-0.0013,10.2916
			c0,0.022,0.0187,0.042,0.0394,0.042h2.3508c0.0226,0,0.04-0.02,0.04-0.042l-0.0032-8.8353c0-0.0117,0.0052-0.0175,0.0162-0.0175
			l1.7863-0.0013c0.4831,0,1.0126,0.0782,1.3517,0.6367c0.31,0.5044,0.4508,1.3918,0.4508,2.7841
			c0.0019,0.0601-0.002,5.4332-0.002,5.4332c0,0.022,0.0188,0.042,0.042,0.042h2.3411c0.0252,0,0.0439-0.02,0.0439-0.042v-5.1613
			C73.4883,11.9559,73.0052,9.2021,69.2628,9.2021"/>
		<path fill="#FFFFFF" d="M59.0538,9.2021c-3.9208,0-4.4219,2.7667-4.4219,5.1859c0,2.4218,0.5011,5.1975,4.4219,5.1975
			c3.9207,0,4.4206-2.7757,4.4206-5.1975C63.4744,11.9688,62.9745,9.2021,59.0538,9.2021 M60.5417,17.4072
			c-0.3694,0.6083-0.9558,0.6897-1.488,0.6897c-0.527,0-1.1154-0.0814-1.4886-0.6897c-0.3371-0.5477-0.4927-1.5067-0.4927-3.0192
			v-0.0123c0-1.785,0.2195-2.799,0.711-3.282c0.2938-0.2932,0.6749-0.412,1.2703-0.412c0.6038,0,0.981,0.1188,1.2748,0.412
			c0.487,0.4831,0.7072,1.5015,0.7072,3.2943C61.0358,15.9024,60.8795,16.8621,60.5417,17.4072"/>
		<path fill="#FFFFFF" d="M7.3755,9.2021c-0.0213,0-0.0336,0.0181-0.0271,0.0407l3.4822,10.1974
			c0.0058,0.0232,0.0058,0.0581-0.0013,0.0808l-1.961,5.0489c-0.0081,0.0239,0.0026,0.0413,0.0255,0.0413h2.0421
			c0.0252,0,0.0516-0.0174,0.06-0.0413l6.1126-15.3271c0.0087-0.0245-0.0023-0.0407-0.0258-0.0407H14.855
			c-0.0242,0-0.0497,0.0181-0.0571,0.0407l-2.5881,6.7009c-0.0091,0.022-0.02,0.022-0.0291,0L9.8958,9.2428
			C9.8907,9.2183,9.8645,9.2021,9.841,9.2021H7.3755z"/>
		<path fill="#FFFFFF" d="M76.2023,19.5777c0.3009,0,0.5806-0.1181,0.7937-0.3261c0.208-0.2125,0.3255-0.4934,0.3255-0.7924
			c0-0.3029-0.1175-0.5871-0.3255-0.7963c-0.2131-0.2125-0.4928-0.3281-0.7937-0.3281c-0.619,0-1.1234,0.5018-1.1234,1.1244
			c0,0.299,0.1156,0.5799,0.3261,0.7924C75.6169,19.4596,75.9036,19.5777,76.2023,19.5777 M75.2669,18.4592
			c0-0.2564,0.0956-0.4889,0.2719-0.6652c0.1789-0.1757,0.4172-0.2719,0.6636-0.2719c0.2493,0,0.4818,0.0962,0.6568,0.2719
			c0.177,0.1763,0.2732,0.4088,0.2732,0.6652c0,0.5121-0.4179,0.928-0.93,0.928c-0.2464,0-0.4847-0.0949-0.6636-0.2699
			C75.3625,18.9416,75.2669,18.7079,75.2669,18.4592"/>
		<path fill="#FFFFFF" d="M76.7545,18.9772c-0.0162-0.0058-0.0291-0.0232-0.0394-0.0516c-0.0032-0.0214-0.0064-0.0555-0.0071-0.0949
			l-0.0058-0.1576c-0.0032-0.0769-0.0168-0.1343-0.0491-0.166c-0.0155-0.0277-0.042-0.0465-0.0672-0.0659
			c0.0323-0.0303,0.0646-0.0613,0.091-0.0968c0.0317-0.0497,0.0485-0.1143,0.0485-0.186c0-0.1492-0.0626-0.2525-0.1847-0.3094
			c-0.0633-0.0258-0.1401-0.0433-0.2364-0.0433h-0.5538h-0.0265v0.031v1.1935v0.0265h0.0265h0.1653h0.0297v-0.0265v-0.4837h0.3374
			c0.062,0,0.1066,0.009,0.135,0.0194c0.042,0.0265,0.0646,0.0671,0.0684,0.1356l0.011,0.1963
			c0.0026,0.0484,0.0058,0.0794,0.0097,0.0995c0.0026,0.0193,0.0084,0.0329,0.0149,0.0445l0.0045,0.0149h0.0162h0.197h0.031v-0.0265
			v-0.0245v-0.0214L76.7545,18.9772z M76.5071,18.1718c0,0.0678-0.0187,0.1124-0.0549,0.1388
			c-0.0401,0.0284-0.0949,0.0407-0.1621,0.0407h-0.3445v-0.35h0.3639c0.0516,0,0.0911,0.0078,0.1201,0.0213
			C76.4794,18.0472,76.5071,18.0963,76.5071,18.1718"/>
	</g>
</g>
</svg>
