<?xml version="1.0" encoding="utf-8"?>
<!-- Generator: Adobe Illustrator 28.0.0, SVG Export Plug-In . SVG Version: 6.00 Build 0)  -->
<svg version="1.1" id="レイヤー_1" xmlns="http://www.w3.org/2000/svg" xmlns:xlink="http://www.w3.org/1999/xlink" x="0px"
	 y="0px" viewBox="0 0 94 32" style="enable-background:new 0 0 94 32;" xml:space="preserve">
<style type="text/css">
	.st0{clip-path:url(#SVGID_00000152974225779982046470000003605293702756001940_);}
	.st1{fill:#FFFFFF;}
</style>
<g id="グループ_3913" transform="translate(632.222 135.517)">
	<g>
		<defs>
			<rect id="SVGID_1_" x="-631" y="-131" width="91.6" height="23"/>
		</defs>
		<clipPath id="SVGID_00000104671740437452688870000002183603506290582656_">
			<use xlink:href="#SVGID_1_"  style="overflow:visible;"/>
		</clipPath>
		
			<g id="グループ_3908" transform="translate(0 0)" style="clip-path:url(#SVGID_00000104671740437452688870000002183603506290582656_);">
			<path id="パス_4226" class="st1" d="M-557.5-117.9c-0.8,0-1.4-0.6-1.4-1.4c0-0.8,0.6-1.4,1.4-1.4c0.8,0,1.4,0.6,1.4,1.4
				c0,0,0,0,0,0C-556.2-118.5-556.8-117.9-557.5-117.9 M-557.5-117.6c0.9,0,1.6-0.7,1.6-1.7c0-0.9-0.7-1.6-1.7-1.6
				c-0.9,0-1.6,0.7-1.6,1.6C-559.2-118.3-558.5-117.6-557.5-117.6C-557.5-117.6-557.5-117.6-557.5-117.6 M-557.6-119.1
				c0.1,0,0.2,0,0.3,0.1c0.1,0.1,0.1,0.3,0.1,0.4c0,0.1,0,0.2,0.1,0.3h0.4c-0.1-0.2-0.1-0.4-0.1-0.6c0-0.2-0.1-0.3-0.3-0.4v0
				c0.2,0,0.4-0.2,0.4-0.5c0-0.4-0.4-0.5-0.7-0.5h-0.6v1.9h0.3v-0.8L-557.6-119.1z M-557.9-119.4v-0.5h0.4c0.2,0,0.3,0.1,0.3,0.2
				c0,0.1-0.1,0.3-0.4,0.3H-557.9z"/>
			<path id="パス_4227" class="st1" d="M-629.8-110.2h-1v-0.4h2.4v0.4h-1v2.1h-0.5V-110.2z"/>
			<path id="パス_4228" class="st1" d="M-627.8-110.6h0.5v1h1.6v-1h0.5v2.5h-0.5v-1.1h-1.6v1.1h-0.5V-110.6z"/>
			<path id="パス_4229" class="st1" d="M-624.4-110.6h2.2v0.4h-1.7v0.6h1.6v0.4h-1.6v0.7h1.7v0.4h-2.2L-624.4-110.6z"/>
			<path id="パス_4230" class="st1" d="M-620.4-110.6h1.6c0.6,0,0.9,0.3,0.9,0.7c0,0.3-0.2,0.5-0.4,0.6v0c0.3,0.1,0.4,0.3,0.4,0.7
				c0,0.1,0,0.5,0,0.5h-0.5c0,0,0-0.2,0-0.4c0-0.4-0.1-0.6-0.4-0.6h-0.9v1h-0.5L-620.4-110.6z M-618.9-109.5c0.3,0,0.5-0.1,0.5-0.4
				c0-0.3-0.2-0.4-0.5-0.4h-0.9v0.7L-618.9-109.5z"/>
			<path id="パス_4231" class="st1" d="M-604.4-110.6h1.6c0.6,0,0.9,0.3,0.9,0.7c0,0.3-0.2,0.5-0.4,0.6v0c0.3,0.1,0.4,0.3,0.4,0.7
				c0,0.1,0,0.5,0,0.5h-0.5c0,0,0-0.2,0-0.4c0-0.4,0-0.6-0.4-0.6h-0.9v1h-0.5L-604.4-110.6z M-602.9-109.5c0.3,0,0.5-0.1,0.5-0.4
				c0-0.3-0.2-0.4-0.5-0.4h-0.9v0.7L-602.9-109.5z"/>
			<path id="パス_4232" class="st1" d="M-564.6-110.6h1.6c0.6,0,0.9,0.3,0.9,0.7c0,0.3-0.2,0.5-0.4,0.6v0c0.3,0.1,0.4,0.3,0.4,0.7
				c0,0.1,0,0.5,0,0.5h-0.5c0,0,0-0.2,0-0.4c0-0.4-0.1-0.6-0.4-0.6h-0.9v1h-0.5L-564.6-110.6z M-563.1-109.5c0.3,0,0.5-0.1,0.5-0.4
				c0-0.3-0.2-0.4-0.5-0.4h-0.9v0.7L-563.1-109.5z"/>
			<path id="パス_4233" class="st1" d="M-617.2-110.6h2.2v0.4h-1.7v0.6h1.6v0.4h-1.6v0.7h1.7v0.4h-2.2V-110.6z"/>
			<path id="パス_4234" class="st1" d="M-613.4-110.6h0.6l1.1,2.5h-0.6l-0.3-0.6h-1.2l-0.3,0.6h-0.6L-613.4-110.6z M-612.7-109.1
				l-0.4-1l-0.4,1H-612.7z"/>
			<path id="パス_4235" class="st1" d="M-611.2-110.6h0.5v2.1h1.5v0.4h-2.1V-110.6z"/>
			<path id="パス_4236" class="st1" d="M-607.5-110.6h1.4c1,0,1.2,0.6,1.2,1.3c0.1,0.6-0.4,1.1-1,1.2c-0.1,0-0.1,0-0.2,0h-1.5
				V-110.6z M-607-108.5h0.7c0.4,0,0.8-0.1,0.8-0.8c0-0.8-0.5-0.8-0.8-0.8h-0.7L-607-108.5z"/>
			<rect id="長方形_2500" x="-601.3" y="-110.6" class="st1" width="0.5" height="2.5"/>
			<path id="パス_4237" class="st1" d="M-600.3-110.6h0.6l0.8,2l0.8-2h0.6l-1.1,2.5h-0.6L-600.3-110.6z"/>
			<rect id="長方形_2501" x="-597.1" y="-110.6" class="st1" width="0.5" height="2.5"/>
			<path id="パス_4238" class="st1" d="M-595.7-110.6h0.6l1.5,1.8h0v-1.8h0.5v2.5h-0.6l-1.5-1.8h0v1.8h-0.5V-110.6z"/>
			<path id="パス_4239" class="st1" d="M-589.6-108.1h-0.4l0-0.3c-0.3,0.3-0.6,0.4-1,0.4c-1.1,0-1.5-0.6-1.5-1.3s0.4-1.3,1.5-1.3
				c0.8,0,1.3,0.4,1.3,0.9h-0.6c-0.1-0.3-0.4-0.5-0.8-0.5c-0.5,0-0.9,0.4-0.9,0.9c0,0.5,0.4,0.9,0.9,0.9c0.4,0.1,0.8-0.2,0.9-0.6
				c0,0,0,0,0,0h-0.7v-0.4h1.2L-589.6-108.1z"/>
			<path id="パス_4240" class="st1" d="M-586.7-110.6c0.4,0,1.2,0.1,1.2,0.8h-0.6c0-0.2-0.2-0.4-0.6-0.4c-0.4,0-0.6,0.1-0.6,0.3
				c0,0.6,1.9,0,1.9,1.1c0,0.6-0.7,0.8-1.2,0.8c-0.9,0-1.3-0.3-1.3-0.9h0.6c0,0.3,0.3,0.5,0.7,0.5c0.3,0,0.6-0.1,0.6-0.4
				c0-0.6-1.9-0.1-1.9-1.1C-587.8-110.4-587.3-110.6-586.7-110.6"/>
			<rect id="長方形_2502" x="-584.7" y="-110.6" class="st1" width="0.5" height="2.5"/>
			<path id="パス_4241" class="st1" d="M-583.3-110.6h0.8l0.9,1.9l0.9-1.9h0.8v2.5h-0.5l0-2h0l-0.9,2h-0.5l-0.9-2h0l0,2h-0.5
				L-583.3-110.6z"/>
			<path id="パス_4242" class="st1" d="M-579.3-110.6h0.5v1.4c0,0.3,0,0.8,0.7,0.8s0.7-0.4,0.7-0.8v-1.4h0.5v1.4
				c0,0.4,0,1.1-1.2,1.1c-1.2,0-1.2-0.7-1.2-1.1V-110.6z"/>
			<path id="パス_4243" class="st1" d="M-576-110.6h0.5v2.1h1.5v0.4h-2.1V-110.6z"/>
			<path id="パス_4244" class="st1" d="M-572.5-110.6h0.6l1.1,2.5h-0.6l-0.3-0.6h-1.2l-0.3,0.6h-0.6L-572.5-110.6z M-571.8-109.1
				l-0.4-1l-0.4,1H-571.8z"/>
			<path id="パス_4245" class="st1" d="M-569.8-110.2h-1v-0.4h2.4v0.4h-1v2.1h-0.5V-110.2z"/>
			<path id="パス_4246" class="st1" d="M-568.1-109.3c0-0.7,0.4-1.3,1.5-1.3s1.5,0.6,1.5,1.3s-0.4,1.3-1.5,1.3
				C-567.7-108-568.1-108.6-568.1-109.3 M-565.7-109.3c0-0.5-0.4-0.9-0.9-1c-0.5,0-0.9,0.4-1,0.9s0.4,0.9,0.9,1c0,0,0,0,0,0
				c0.5,0,0.9-0.3,0.9-0.8C-565.7-109.2-565.7-109.3-565.7-109.3"/>
			<path id="パス_4247" class="st1" d="M-626.3-118.3c0.2-0.5,0.4-1.4-0.3-1.4c-0.8,0-1.1,0.8-1.8,3.1c-0.7,2.3-0.8,3-0.1,3
				c0.6,0,1-0.6,1.4-1.8l0.1-0.3h-0.9l0.4-1.3h2.6l-1.4,4.5h-1.3l0.3-0.8h0c-0.5,0.6-1.2,1-2,1c-2,0-1.9-1.6-1.1-4.2
				c0.8-2.8,1.6-4.5,4.2-4.5c2.4,0,2,1.8,1.7,2.7L-626.3-118.3z"/>
			<path id="パス_4248" class="st1" d="M-588.7-120.9h3.2c1.6,0,1.8,1,1.5,2.2c-0.2,1-1,1.8-2,2l0,0c1.1,0.2,1,0.9,0.7,2.1
				c-0.4,1.7-0.5,2.1-0.5,2.1h-1.9c0,0,0.1-0.7,0.4-1.7c0.3-1.5,0.3-1.8-0.3-1.8h-0.7l-1.1,3.5h-1.9L-588.7-120.9z M-587.9-117.3
				h0.6c0.6,0,1.2-0.5,1.3-1.1c0.2-0.6,0.1-1.1-0.7-1.1h-0.6L-587.9-117.3z"/>
			<path id="パス_4249" class="st1" d="M-622.6-120.9h3.2c1.6,0,1.8,1,1.5,2.2c-0.2,1-1,1.8-2,2l0,0c1.1,0.2,1,0.9,0.7,2.1
				c-0.4,1.7-0.5,2.1-0.5,2.1h-1.9c0,0,0.1-0.7,0.4-1.7c0.3-1.5,0.3-1.8-0.3-1.8h-0.7l-1.1,3.5h-1.9L-622.6-120.9z M-621.8-117.3
				h0.6c0.6,0,1.2-0.5,1.3-1.1c0.2-0.6,0.1-1.1-0.7-1.1h-0.6L-621.8-117.3z"/>
			<path id="パス_4250" class="st1" d="M-614.6-120.9h2.4l-0.6,8.4h-2l0.2-1.6h-1.9l-0.8,1.6h-2L-614.6-120.9z M-613.9-119.4
				L-613.9-119.4l-1.8,3.7h1.4L-613.9-119.4z"/>
			<path id="パス_4251" class="st1" d="M-609.6-120.9h2.2l-0.1,5.5h0l1.7-5.5h1.7l-2.6,8.4h-2.1l0.1-5.8h0l-1.8,5.8h-1.7
				L-609.6-120.9z"/>
			<path id="パス_4252" class="st1" d="M-599.7-119.3h-1.7l0.5-1.6h5.2l-0.5,1.6h-1.7l-2.1,6.8h-1.9L-599.7-119.3z"/>
			<path id="パス_4253" class="st1" d="M-591.5-115.3c-0.5,1.6-1.3,2.9-3.5,2.9s-2.2-1.3-1.7-2.9l1.7-5.6h1.9l-1.9,6.2
				c-0.2,0.7-0.1,1,0.4,1c0.5,0,0.9-0.4,1.1-1l1.9-6.2h1.9L-591.5-115.3z"/>
			<path id="パス_4254" class="st1" d="M-582.4-120.9h1.9l-2.6,8.4h-1.9L-582.4-120.9z"/>
			<path id="パス_4255" class="st1" d="M-579.6-115.1l-0.1,0.3c-0.2,0.6-0.2,1.1,0.5,1.1c0.6,0,1-0.4,1.2-1
				c0.6-1.8-3.2-0.8-2.2-3.9c0.4-1.5,1.8-2.6,3.4-2.5c1.9,0,2.2,1,1.9,2.3l-0.1,0.2h-1.8c0.1-0.3,0.2-0.6,0.1-0.9
				c0-0.2-0.2-0.3-0.5-0.3c-0.5,0-0.8,0.3-1,0.9c-0.5,1.8,3.2,0.9,2.3,3.8c-0.4,1.7-1.9,2.8-3.5,2.7c-1.4,0-2.5-0.4-2-2.2l0.2-0.5
				L-579.6-115.1z"/>
			<path id="パス_4256" class="st1" d="M-573.4-120.9h2.8l-0.7,5.5h0l2.6-5.5h2.7l-2.6,8.4h-1.7l2-6.6h0l-3.2,6.6h-1.5l0.7-6.6h0
				l-2,6.6h-1.7L-573.4-120.9z"/>
			<path id="パス_4257" class="st1" d="M-564.8-112.3c-2.5,0-2.3-1.7-1.5-4.4c0.8-2.7,1.7-4.4,4.1-4.4c2.7,0,2.2,2,1.5,4.4
				C-561.4-114.4-562.2-112.3-564.8-112.3 M-564.5-113.6c0.8,0,1.1-0.7,1.8-3.1c0.7-2.3,0.8-3.1,0-3.1c-0.7,0-1.1,0.7-1.8,3.1
				C-565.1-114.4-565.2-113.6-564.5-113.6"/>
			<path id="パス_4258" class="st1" d="M-592.7-131h-14.2c-0.2,0-0.3,0.1-0.4,0.3c0,0-1.9,5.6-2.1,6.1c-0.1,0.3,0,0.4,0.3,0.4h14
				c0.3,0,0.5-0.2,0.6-0.5c0.2-0.5,2-6,2-6c0-0.1,0-0.2-0.1-0.2C-592.7-131-592.7-131-592.7-131"/>
			<path id="パス_4259" class="st1" d="M-610.5-131h-14.9c-0.2,0-0.3,0.1-0.4,0.3c0,0-2,5.5-2.1,6.1c-0.1,0.3,0.1,0.5,0.3,0.5
				h14.6c0.3,0,0.5-0.2,0.6-0.4c0.2-0.5,2.1-6.1,2.1-6.1C-610.3-130.8-610.3-130.9-610.5-131C-610.4-131-610.5-131-610.5-131"/>
			<path id="パス_4260" class="st1" d="M-539.4-127.5l-0.9,3.1c-4.7,4.7-8.4,10.3-11,16.4h-4.1c2.6-6,6.4-11.4,11.1-16h-8.4
				l1.1-3.5H-539.4z"/>
		</g>
	</g>
</g>
</svg>
