<?xml version="1.0" encoding="utf-8"?>
<!-- Generator: Adobe Illustrator 18.1.1, SVG Export Plug-In . SVG Version: 6.00 Build 0)  -->
<svg version="1.1" id="レイヤー_1" xmlns="http://www.w3.org/2000/svg" xmlns:xlink="http://www.w3.org/1999/xlink" x="0px"
	 y="0px" width="90px" height="100px" viewBox="0 0 90 100" enable-background="new 0 0 90 100" xml:space="preserve">
<g>
	<g>
		<g>
			<g>
				<path fill="#FFFFFF" d="M48.9,54.6l-12-12L17.9,61.5v4.2l18.9-18.9l8.3,8.3c0.1,0,0.2,0,0.3,0v17h3V54.7
					C48.6,54.7,48.7,54.7,48.9,54.6z"/>
				<path fill="#FFFFFF" d="M38.9,27.9L61.1,5.7c-0.9-0.5-1.8-1-2.8-1.4L36.8,25.8L17.9,6.9v4.2l16.8,16.8L17.9,44.7v4.2L36.8,30
					l21.5,21.5c-0.3,0.2-0.6,0.3-0.9,0.4v20.2h3V50.3c0.2-0.1,0.4-0.3,0.6-0.4L38.9,27.9z"/>
				<path fill="#FFFFFF" d="M55.4,52.8L36.8,34.2L17.9,53.1v4.2l18.9-18.9l15.4,15.4c-0.3,0.1-0.5,0.2-0.8,0.2v18.1h3v-19
					C54.7,53,55.1,52.9,55.4,52.8z"/>
				<path fill="#FFFFFF" d="M65.5,46L47.3,27.9L65.8,9.4c-0.7-0.7-1.4-1.4-2.2-2L43.1,27.9l20.2,20.2c0,0,0,0-0.1,0v24h3V45.3
					C66,45.5,65.7,45.8,65.5,46z"/>
				<path fill="#FFFFFF" d="M41.3,55.3L41.3,55.3L41.3,55.3h-0.1L36.8,51L17.9,69.9v2.2h2l16.7-16.7l0.2-0.1h2.7v16.8h3V55.3
					C42.1,55.3,41.7,55.3,41.3,55.3z"/>
				<polygon fill="#FFFFFF" points="32.5,72.1 36.8,72.1 36.8,67.8 				"/>
				<polygon fill="#FFFFFF" points="28.3,72.1 36.8,63.6 36.8,59.4 24.1,72.1 				"/>
				<g>
					<path fill="#FFFFFF" d="M52,2.1L36.8,17.3L19.9,0.4h-2v2.2l18.9,18.9L55.3,3.1C54.2,2.7,53.1,2.4,52,2.1z"/>
				</g>
				<g>
					<path fill="#FFFFFF" d="M69.3,14.3c-0.5-0.9-1-1.8-1.6-2.6L51.5,27.9l15.8,15.8c0.6-0.8,1.1-1.7,1.6-2.6L55.7,27.9L69.3,14.3z"
						/>
				</g>
				<g>
					<polygon fill="#FFFFFF" points="17.9,23.6 17.9,32.2 22.2,27.9 					"/>
				</g>
				<g>
					<path fill="#FFFFFF" d="M35.5,0.4h-3l4.3,4.3L41,0.6C39.2,0.5,37.4,0.4,35.5,0.4z"/>
				</g>
				<g>
					<polygon fill="#FFFFFF" points="17.9,15.2 17.9,19.4 26.4,27.9 17.9,36.4 17.9,40.6 30.6,27.9 					"/>
				</g>
				<g>
					<path fill="#FFFFFF" d="M44.9,0.9l-8,8l-8.5-8.5h-4.2l12.7,12.7L48.5,1.4C47.3,1.2,46.1,1,44.9,0.9z"/>
				</g>
				<path fill="#FFFFFF" d="M72.2,28.5c0-0.2,0-0.4,0-0.6c0,0-0.1-2.2-0.2-3.6l-3.6,3.6l3.7,3.7c-0.2,1.1-0.4,2.3-0.8,3.5l-7.2-7.2
					l7.3-7.3c-0.2-1.1-0.5-2.2-0.9-3.3L60,27.9l10.4,10.4c-0.3,0.9-0.7,1.7-1.1,2.6v31.3h3V31.7l0,0L72.2,28.5z"/>
			</g>
			<g>
				<g>
					<path fill="#FFFFFF" d="M2.1,94.3c-0.4,0-0.7,0-0.9,0c-0.2,0-0.3,0-0.4,0c-0.2,0-0.4,0-0.5,0l-0.1,0l-0.1,0v5.4h2.4
						c1.5,0,2.7-1.2,2.7-2.9C5.1,95.1,4.1,94.3,2.1,94.3z M1.4,99.1v-4.2c0.2,0,0.4,0,0.7,0c1,0,1.7,0.8,1.7,2
						c0,1.5-0.6,2.3-1.8,2.3C1.7,99.1,1.5,99.1,1.4,99.1L1.4,99.1z"/>
					<path fill="#FFFFFF" d="M17,94.3c-0.1,0-0.3,0-0.5,0c-0.2,0-0.4,0-0.5,0l-0.1,0l-0.1,0v5.4h1.4v-5.4c0,0-0.1,0-0.1,0L17,94.3z"
						/>
					<path fill="#FFFFFF" d="M45.5,94.3c-0.1,0-0.3,0-0.5,0c-0.2,0-0.4,0-0.5,0l-0.1,0l-0.1,0c0,0,0,5.4,0,5.4h1.4v-5.4l-0.1,0
						L45.5,94.3z"/>
					<path fill="#FFFFFF" d="M33.2,97.2c-0.1,0-0.2,0-0.5,0c-0.3,0-0.4,0-0.5,0c0,0,0,0-0.1,0l-0.1,0V99c-0.1,0.1-0.5,0.1-0.7,0.1
						c-1.1,0-1.8-0.8-1.8-2c0-1.6,1-2.3,1.8-2.3c0.6,0,1.1,0.2,1.4,0.7l0,0H33l0-0.1c0-0.2,0.1-0.5,0.2-0.8l0-0.1l-0.1,0
						c-0.6-0.3-1.2-0.5-1.9-0.5c-2,0-3.2,1.1-3.2,3c0,1.6,1.2,2.6,3.1,2.6c0.6,0,1.3-0.1,2.1-0.3l0.1,0v-2.3L33.2,97.2
						C33.2,97.2,33.2,97.2,33.2,97.2z"/>
					<path fill="#FFFFFF" d="M60.6,94.7c0-0.1,0-0.2,0-0.3l0-0.1l-0.1,0l-0.3,0c-0.5,0-0.9,0-1.7,0c-0.8,0-1.2,0-1.7,0l-0.3,0
						l-0.1,0l0,0.1c0,0.1,0,0.2,0,0.3c0,0.1,0,0.2,0,0.3l0,0.1l0.1,0c0.4-0.1,1-0.1,1.3-0.1v4.7h1.4V95c0.3,0,0.9,0,1.2,0.1l0.1,0
						l0-0.1C60.6,94.9,60.6,94.8,60.6,94.7z"/>
					<path fill="#FFFFFF" d="M72.9,94.3L72.9,94.3L72.9,94.3c-0.1,0-0.2,0-0.2,0c-0.1,0-0.1,0-0.2,0c-0.1,0-0.1,0-0.2,0
						c0,0-0.1,0-0.1,0l-0.1,0l0,0.1c-0.6,1.7-1.8,4.4-2.2,5.3l-0.1,0.1h0.9l0-0.1c0.1-0.5,0.3-1,0.5-1.5H73c0.2,0.5,0.3,1,0.5,1.5
						l0,0.1H75L75,99.6C74.4,98.3,73.4,95.7,72.9,94.3z M72.2,96c0.2,0.5,0.4,1,0.6,1.5l0,0h-1.2C71.8,97,72,96.5,72.2,96z"/>
					<path fill="#FFFFFF" d="M88.5,99.6c0-0.1,0-0.2,0-0.3c0-0.2,0-0.2,0-0.3l0-0.1l-0.1,0C87.9,99,87.3,99,86.8,99v-4.7
						c0,0-0.1,0-0.1,0l-0.1,0c-0.1,0-0.3,0-0.5,0c-0.2,0-0.4,0-0.5,0l-0.1,0l-0.1,0v5.4L88.5,99.6L88.5,99.6L88.5,99.6z"/>
				</g>
				<g>
					<path fill="#FFFFFF" d="M4.7,83.5c0,2-1.3,2.3-2.3,2.3v-4.3c0.2,0,0.4,0,0.7,0C4,81.4,4.7,82,4.7,83.5z M0,91.2h2.4v-4.6h0.8
						c2.3,0,4-0.9,4-3.3c0-0.9-0.3-1.5-1-2.1c-0.5-0.4-1.2-0.6-2.7-0.6c-0.7,0-1.5,0.1-2.3,0.1c-0.5,0-0.9,0-1.3-0.1V91.2z"/>
					<path fill="#FFFFFF" d="M42.3,83.5c0,2-1.3,2.3-2.3,2.3v-4.3c0.2,0,0.4,0,0.7,0C41.5,81.4,42.3,82,42.3,83.5z M37.6,91.2H40
						v-4.6h0.8c2.3,0,4-0.9,4-3.3c0-0.9-0.3-1.5-1-2.1c-0.5-0.4-1.2-0.6-2.7-0.6c-0.7,0-1.5,0.1-2.2,0.1c-0.5,0-0.9,0-1.3-0.1V91.2z
						"/>
					<path fill="#FFFFFF" d="M17.4,85.5c0,3.4-1.6,4.9-3.5,4.9c-1.7,0-3.2-1.1-3.2-4.4c0-2.7,1.2-4.8,3.3-4.8
						C16,81.2,17.4,82.9,17.4,85.5z M8.2,85.9c0,3.9,2.6,5.5,5.9,5.5c3.4,0,5.9-2.5,5.9-5.5c0-3.7-2.6-5.5-5.8-5.5
						C10.5,80.4,8.2,82.8,8.2,85.9z"/>
					<path fill="#FFFFFF" d="M21.4,80.6c0.3,0,0.8,0.1,1.3,0.1c0.5,0,0.9,0,1.2-0.1v9.5c1.2,0,2.3-0.1,3.5-0.2
						c0,0.2-0.1,0.4-0.1,0.7c0,0.3,0,0.5,0.1,0.7h-6V80.6z"/>
					<path fill="#FFFFFF" d="M32.3,85.2c0.8-1.2,1.7-3.1,2.4-4.6c0.2,0,0.5,0.1,0.7,0.1c0.2,0,0.5,0,0.7-0.1
						c-0.7,1.2-3.2,5.9-3.2,5.9v4.7h-2.5v-4.4c0,0-2.7-5.3-3.2-6.2c0.5,0,0.9,0.1,1.4,0.1c0.5,0,0.9,0,1.4-0.1
						C30.7,82.1,31.8,84.5,32.3,85.2L32.3,85.2z"/>
					<path fill="#FFFFFF" d="M86.2,85.2c0.9-1.3,1.7-3.1,2.4-4.6c0.2,0,0.5,0.1,0.7,0.1c0.2,0,0.5,0,0.7-0.1
						c-0.7,1.2-3.2,5.9-3.2,5.9v4.7h-2.5v-4.4c0,0-2.7-5.3-3.2-6.2c0.5,0,0.9,0.1,1.4,0.1c0.5,0,0.9,0,1.4-0.1
						C84.6,82.1,85.8,84.5,86.2,85.2L86.2,85.2z"/>
					<path fill="#FFFFFF" d="M53.3,86h-4.6v5.2h-2.5V80.6c0.3,0,0.8,0.1,1.3,0.1c0.5,0,0.9,0,1.2-0.1v4.2c0.5,0,1.2,0,2.3,0
						c1.1,0,1.7,0,2.3,0v-4.2c0.3,0,0.7,0.1,1.2,0.1c0.5,0,0.9,0,1.3-0.1v10.6h-2.5V86z"/>
					<path fill="#FFFFFF" d="M66.5,85.5c0,3.4-1.6,4.9-3.5,4.9c-1.7,0-3.2-1.1-3.2-4.4c0-2.7,1.2-4.8,3.3-4.8
						C65.1,81.2,66.5,82.9,66.5,85.5z M57.3,85.9c0,3.9,2.6,5.5,5.9,5.5c3.4,0,5.9-2.5,5.9-5.5c0-3.7-2.6-5.5-5.8-5.5
						C59.6,80.4,57.3,82.8,57.3,85.9z"/>
					<path fill="#FFFFFF" d="M70.5,80.6c0.2,0,0.6,0.1,0.8,0.1c0.2,0,0.5,0,0.7-0.1c2.2,2.4,4.4,4.9,6.7,7.3c0-2.5,0-7.3,0-7.3
						c0.2,0,0.4,0.1,0.6,0.1c0.2,0,0.3,0,0.6-0.1v10.6h-1.4c-2.1-2.5-4.3-5-6.7-7.5v7.5h-1.3V80.6z"/>
				</g>
			</g>
		</g>
	</g>
	<path fill="#FFFFFF" d="M69.8,4c0,1.7,1.3,3,3,3c1.6,0,3-1.3,3-3c0-1.6-1.3-3-3-3C71.1,1,69.8,2.3,69.8,4z M69,4
		c0-2.1,1.7-3.8,3.8-3.8c2.1,0,3.8,1.7,3.8,3.8c0,2.1-1.7,3.8-3.8,3.8C70.7,7.8,69,6.1,69,4z M73.2,1.8c0.4,0,0.8,0,1.1,0.2
		c0.4,0.2,0.5,0.7,0.5,1.1c0,0.7-0.3,1-1.1,1.1l-0.1,0c0,0,0.9,1.6,1,1.8c-0.2,0-0.9,0-1,0c0-0.1-0.9-1.8-0.9-1.8H72
		c0,0,0,1.7,0,1.8c-0.1,0-0.7,0-0.8,0c0-0.1,0-4.1,0-4.2C71.3,1.8,73.2,1.8,73.2,1.8z M72,2.4L72,2.4L72,3.5h1.2
		c0.3,0,0.5,0,0.6-0.1c0.1-0.1,0.1-0.2,0.1-0.5c0-0.5-0.5-0.5-0.9-0.5H72z"/>
</g>
<g>
</g>
<g>
</g>
<g>
</g>
<g>
</g>
<g>
</g>
<g>
</g>
</svg>
