<?xml version="1.0" encoding="utf-8"?>
<!-- Generator: Adobe Illustrator 28.0.0, SVG Export Plug-In . SVG Version: 6.00 Build 0)  -->
<svg version="1.1" id="レイヤー_1" xmlns="http://www.w3.org/2000/svg" xmlns:xlink="http://www.w3.org/1999/xlink" x="0px"
	 y="0px" viewBox="0 0 80 40" style="enable-background:new 0 0 80 40;" xml:space="preserve">
<style type="text/css">
	.st0{fill:#FFFFFF;}
	.st1{fill:#0095FF;}
</style>
<g>
	<path class="st0" d="M7.6,4.4C7.5,4,7.2,3.7,6.8,3.5C6.6,3.4,6.3,3.3,6,3.3c-0.6,0-1,0.2-1.4,0.6C4.2,4.3,4,4.9,4,5.7
		C4,6.5,4.2,7,4.6,7.4S5.5,7.9,6,7.9c0.5,0,0.9-0.1,1.2-0.4c0.3-0.3,0.5-0.6,0.6-1H6.2V5.4h3v3.4h-1L8,8C7.7,8.3,7.4,8.6,7.2,8.7
		C6.8,8.9,6.3,9,5.8,9C4.8,9,4.1,8.7,3.5,8.1c-0.6-0.6-1-1.4-1-2.4c0-1,0.3-1.9,1-2.5C4.1,2.6,4.9,2.2,6,2.2c0.9,0,1.6,0.2,2.2,0.6
		C8.7,3.3,9,3.8,9.1,4.4H7.6z M14.9,2.6c0.3,0.1,0.5,0.2,0.7,0.5c0.1,0.2,0.3,0.3,0.4,0.5C16,3.8,16,4,16,4.2c0,0.3-0.1,0.6-0.2,0.9
		c-0.2,0.3-0.4,0.5-0.8,0.6c0.3,0.1,0.6,0.3,0.7,0.5c0.1,0.2,0.2,0.6,0.2,1v0.4c0,0.3,0,0.5,0,0.6c0,0.2,0.1,0.3,0.3,0.4v0.2h-1.6
		c0-0.1-0.1-0.3-0.1-0.4c0-0.2-0.1-0.4-0.1-0.6l0-0.6c0-0.4-0.1-0.7-0.2-0.8c-0.1-0.1-0.4-0.2-0.9-0.2h-1.5v2.5h-1.4V2.4h3.4
		C14.2,2.4,14.6,2.5,14.9,2.6z M11.8,3.5v1.7h1.6c0.3,0,0.6,0,0.7-0.1c0.3-0.1,0.4-0.4,0.4-0.7c0-0.4-0.1-0.7-0.4-0.8
		c-0.1-0.1-0.4-0.1-0.7-0.1C13.4,3.5,11.8,3.5,11.8,3.5z M19.3,2.4H21l2.5,6.4h-1.6l-0.5-1.3h-2.6l-0.5,1.3h-1.6L19.3,2.4z
		 M19.2,6.4H21l-0.9-2.5L19.2,6.4z M24.2,2.4h1.5l2.8,4.5V2.4H30v6.4h-1.5l-2.9-4.6v4.6h-1.4V2.4z M38.8,2.4v1.1h-2.2v5.3h-1.5V3.5
		H33V2.4H38.8z M39.8,2.4h1.5v4c0,0.4,0.1,0.8,0.2,1c0.2,0.4,0.6,0.5,1.2,0.5s1-0.2,1.2-0.5c0.1-0.2,0.2-0.5,0.2-1v-4h1.5v4
		c0,0.7-0.1,1.2-0.3,1.6c-0.4,0.7-1.3,1-2.5,1c-1.2,0-2.1-0.4-2.5-1.1c-0.2-0.4-0.3-0.9-0.3-1.6L39.8,2.4L39.8,2.4z M51.3,2.6
		c0.3,0.1,0.5,0.2,0.7,0.5c0.2,0.2,0.3,0.3,0.4,0.5s0.1,0.4,0.1,0.7c0,0.3-0.1,0.6-0.3,0.9c-0.2,0.3-0.5,0.5-0.8,0.6
		C51.7,5.9,51.9,6,52,6.3c0.1,0.2,0.2,0.6,0.2,1v0.4c0,0.3,0,0.5,0,0.6c0,0.2,0.1,0.3,0.3,0.4v0.2h-1.6c0-0.1-0.1-0.3-0.1-0.4
		c0-0.2-0.1-0.4-0.1-0.6l0-0.6c0-0.4-0.1-0.7-0.2-0.8c-0.2-0.1-0.4-0.2-0.8-0.2h-1.5v2.5h-1.5V2.4h3.4C50.6,2.4,51,2.5,51.3,2.6z
		 M48.2,3.5v1.7h1.6c0.3,0,0.5,0,0.7-0.1c0.3-0.1,0.4-0.4,0.4-0.7c0-0.4-0.1-0.7-0.4-0.8c-0.2-0.1-0.4-0.1-0.7-0.1
		C49.8,3.5,48.2,3.5,48.2,3.5z M54.9,8.8h-1.5V2.4h1.5V8.8z M57.4,6.8c0,0.3,0.1,0.5,0.3,0.7c0.2,0.3,0.7,0.4,1.2,0.4
		c0.3,0,0.6,0,0.9-0.1c0.4-0.1,0.6-0.4,0.6-0.7c0-0.2-0.1-0.4-0.3-0.5c-0.2-0.1-0.5-0.2-1-0.3l-0.8-0.2c-0.8-0.2-1.3-0.3-1.5-0.5
		c-0.5-0.3-0.7-0.8-0.7-1.4c0-0.6,0.2-1,0.7-1.4s1.2-0.6,2.1-0.6c0.8,0,1.4,0.2,1.9,0.5c0.5,0.4,0.8,0.9,0.8,1.5h-1.4
		c0-0.4-0.2-0.6-0.6-0.8c-0.2-0.1-0.5-0.2-0.9-0.2c-0.4,0-0.7,0.1-0.9,0.2c-0.2,0.1-0.3,0.3-0.3,0.6c0,0.2,0.1,0.4,0.3,0.5
		c0.2,0.1,0.5,0.2,0.9,0.3L60,5.2c0.5,0.1,1,0.3,1.2,0.5c0.4,0.3,0.6,0.7,0.6,1.3c0,0.6-0.2,1.1-0.8,1.5S59.9,9,59,9
		c-0.9,0-1.7-0.2-2.2-0.6C56.2,8,56,7.5,56,6.8L57.4,6.8L57.4,6.8z M67.7,2.4h2.1v6.4h-1.4V4.5c0-0.1,0-0.3,0-0.5c0-0.2,0-0.4,0-0.5
		l-1.4,5.4h-1.5l-1.3-5.4c0,0.1,0,0.3,0,0.5c0,0.2,0,0.4,0,0.5v4.4h-1.4V2.4h2.2l1.3,5.1L67.7,2.4z M76.4,8.2
		C75.9,8.7,75.1,9,74.1,9s-1.8-0.2-2.3-0.8c-0.7-0.6-1.1-1.5-1.1-2.7c0-1.2,0.4-2.1,1.1-2.7c0.5-0.5,1.3-0.8,2.3-0.8
		s1.8,0.2,2.3,0.8c0.7,0.6,1.1,1.5,1.1,2.7C77.5,6.8,77.1,7.6,76.4,8.2z M75.5,7.3C75.8,6.9,76,6.3,76,5.6s-0.2-1.3-0.5-1.7
		s-0.8-0.6-1.4-0.6c-0.6,0-1.1,0.2-1.4,0.6c-0.3,0.4-0.5,0.9-0.5,1.7s0.2,1.3,0.5,1.7c0.3,0.4,0.8,0.6,1.4,0.6
		C74.7,7.9,75.2,7.7,75.5,7.3z"/>
	<path class="st1" d="M77.4,27.6h-13v-2.3h11.5v-4.4H64.4v-2.3h12.7v-4.7H56.9v16.8c-2.5-0.4-5.1-0.8-7.9-1l6.5-15.8h-7.7L43.9,25
		h-0.1l-4-11.2h-7.6l6,15.3c-2.5,0-5,0.1-7.4,0.3V13.8h-7.5v16.5c-0.9,0.1-1.7,0.3-2.6,0.4v-3.2H10.1V13.8H2.6v18.5h11.8
		c-4.3,1.2-8,2.7-10.9,4.4c7.4-2.2,16.7-3.8,27.1-4.4h0.4v0c2.8-0.2,5.6-0.2,8.5-0.2l0,0c0,0,0,0,0.1,0c1.3,0,2.6,0,3.9,0.1
		c0.2,0,0.4,0,0.5,0c1.3,0,2.6,0.1,3.8,0.2c10.6,0.5,20.2,2.1,27.7,4.4c-2.9-1.7-6.7-3.2-10.9-4.4h12.8V27.6z"/>
</g>
</svg>
